<?xml version="1.0" encoding="UTF-8" standalone="no"?>
<!-- Created with Inkscape (http://www.inkscape.org/) -->

<svg
   xmlns:dc="http://purl.org/dc/elements/1.1/"
   xmlns:cc="http://creativecommons.org/ns#"
   xmlns:rdf="http://www.w3.org/1999/02/22-rdf-syntax-ns#"
   xmlns:svg="http://www.w3.org/2000/svg"
   xmlns="http://www.w3.org/2000/svg"
   xmlns:sodipodi="http://sodipodi.sourceforge.net/DTD/sodipodi-0.dtd"
   xmlns:inkscape="http://www.inkscape.org/namespaces/inkscape"
   width="744.09448819"
   height="1052.3622047"
   id="svg2"
   version="1.1"
   inkscape:version="0.48.5 r10040"
   sodipodi:docname="New document 1">
  <defs
     id="defs4" />
  <sodipodi:namedview
     id="base"
     pagecolor="#ffffff"
     bordercolor="#666666"
     borderopacity="1.0"
     inkscape:pageopacity="0.0"
     inkscape:pageshadow="2"
     inkscape:zoom="1"
     inkscape:cx="169.37529"
     inkscape:cy="630.60302"
     inkscape:document-units="px"
     inkscape:current-layer="layer2"
     showgrid="false"
     inkscape:window-width="1920"
     inkscape:window-height="1032"
     inkscape:window-x="1440"
     inkscape:window-y="0"
     inkscape:window-maximized="1" />
  <metadata
     id="metadata7">
    <rdf:RDF>
      <cc:Work
         rdf:about="">
        <dc:format>image/svg+xml</dc:format>
        <dc:type
           rdf:resource="http://purl.org/dc/dcmitype/StillImage" />
        <dc:title></dc:title>
      </cc:Work>
    </rdf:RDF>
  </metadata>
  <g
     inkscape:label="Layer 1"
     inkscape:groupmode="layer"
     id="layer1"
     style="display:inline" />
  <g
     inkscape:groupmode="layer"
     id="layer2"
     inkscape:label="Icon">
    <text
       xml:space="preserve"
       style="font-size:40px;font-style:normal;font-weight:normal;line-height:125%;letter-spacing:0px;word-spacing:0px;fill:#000000;fill-opacity:1;stroke:none;font-family:Sans"
       x="236"
       y="130.36218"
       id="text2988"
       sodipodi:linespacing="125%"><tspan
         sodipodi:role="line"
         id="tspan2990"
         x="236"
         y="130.36218"
         style="font-size:144px;font-weight:normal;line-height:125%;-inkscape-font-specification:Sans" /></text>
    <flowRoot
       xml:space="preserve"
       id="flowRoot2992"
       style="fill:black;stroke:none;stroke-opacity:1;stroke-width:1px;stroke-linejoin:miter;stroke-linecap:butt;fill-opacity:1;font-family:Sans;font-style:normal;font-weight:normal;font-size:40px;line-height:125%;letter-spacing:0px;word-spacing:0px"><flowRegion
         id="flowRegion2994"><rect
           id="rect2996"
           width="62"
           height="48"
           x="176"
           y="130.36218" /></flowRegion><flowPara
         id="flowPara2998"></flowPara></flowRoot>    <rect
       style="fill:#1a1a1a"
       id="rect3039"
       width="488"
       height="456"
       x="85"
       y="160.36218"
       ry="70" />
    <text
       xml:space="preserve"
       style="font-size:450px;font-style:normal;font-weight:bold;line-height:125%;letter-spacing:0px;word-spacing:0px;fill:#000000;fill-opacity:1;stroke:none;font-family:Sans;-inkscape-font-specification:Sans Bold"
       x="212"
       y="548.36218"
       id="text3045"
       sodipodi:linespacing="125%"><tspan
         sodipodi:role="line"
         id="tspan3047"
         x="212"
         y="548.36218">?</tspan></text>
    <flowRoot
       xml:space="preserve"
       id="flowRoot3049"
       style="fill:black;stroke:none;stroke-opacity:1;stroke-width:1px;stroke-linejoin:miter;stroke-linecap:butt;fill-opacity:1;font-family:Sans;font-style:normal;font-weight:normal;font-size:144px;line-height:125%;letter-spacing:0px;word-spacing:0px"><flowRegion
         id="flowRegion3051"><rect
           id="rect3053"
           width="226"
           height="226"
           x="326"
           y="-311.63782" /></flowRegion><flowPara
         id="flowPara3055"></flowPara></flowRoot>    <path
       style="fill:#f2f2f2"
       d="m 330.96684,931.45917 c -2.87473,-47.53797 -16.14106,-112.46484 -32.38586,-158.5 -6.83436,-19.36746 -20.64801,-49.53067 -30.45341,-66.49747 -25.70555,-44.47963 -59.68141,-76.22783 -93.25228,-87.13811 l -7,-2.27494 164,0 164,0 -7.04722,2.28358 c -9.9816,3.23443 -25.77285,11.74088 -35.8869,19.3316 -31.42217,23.58272 -61.12432,66.55033 -81.77383,118.29534 -19.17542,48.05113 -33.45777,112.09043 -37.80269,169.5 -0.62438,8.25 -1.25605,15.45 -1.40369,16 -0.14765,0.55 -0.595,-4.4 -0.99412,-11 l 0,0 z"
       id="path3089"
       inkscape:connector-curvature="0" />
    <path
       style="fill:#f2f2f2"
       d="m 289.37529,511.45917 0,-38.5 39,0 39,0 0,38.5 0,38.5 -39,0 -39,0 0,-38.5 z"
       id="path3091"
       inkscape:connector-curvature="0" />
    <path
       style="fill:#f2f2f2"
       d="m 289.37529,428.61913 c 0,-26.03707 8.46099,-40.22153 42.96787,-72.0336 23.07516,-21.27311 29.71433,-30.46356 31.87682,-44.12636 2.34595,-14.82192 -3.5117,-27.20818 -15.84199,-33.49863 -21.11612,-10.77264 -59.76464,-3.41514 -96.33533,18.33931 -4.30795,2.56262 -8.02643,4.65932 -8.2633,4.65932 -0.23687,0 -0.31219,-15.1715 -0.16737,-33.71445 l 0.2633,-33.71444 10.5,-3.32711 c 14.45176,-4.57928 31.23906,-8.78295 45.5,-11.39355 16.17155,-2.96036 51.65904,-3.21191 67,-0.47493 13.25882,2.3655 29.25446,7.73343 38.4957,12.91866 10.98444,6.16334 23.4347,18.8577 28.85339,29.4191 12.86585,25.07642 11.93571,60.40827 -2.20575,83.78672 -5.8939,9.74372 -12.17898,17.1492 -25.03684,29.5 -28.42358,27.30267 -32.13601,31.29887 -35.58528,38.30532 -2.82968,5.74791 -3.37124,8.05835 -3.79707,16.19938 l -0.49667,9.4953 -38.86374,0 -38.86374,0 0,-10.34004 z"
       id="path3093"
       inkscape:connector-curvature="0" />
    <path
       style="fill:#1a1a1a"
       d="m 328.93847,925.23747 c -1.01468,-15.327 -4.63361,-42.61395 -8.06071,-60.7783 -3.16062,-16.75198 -8.17699,-39.41843 -11.06563,-50 -1.95186,-7.15 -4.20845,-15.475 -5.01465,-18.5 -0.8062,-3.025 -1.66869,-6.06722 -1.91665,-6.7605 -0.24795,-0.69327 -0.45503,-1.36827 -0.46016,-1.5 -0.0918,-2.35525 -10.999,-31.45238 -15.3189,-40.86618 -1.86095,-4.05533 -4.90227,-10.74832 -6.75848,-14.87332 -5.14082,-11.4243 -15.25398,-30.46467 -17.56954,-33.07874 -0.76916,-0.86831 -1.39846,-2.10581 -1.39846,-2.75 0,-0.6442 -0.45,-1.17126 -1,-1.17126 -0.55,0 -1,-0.48142 -1,-1.06983 0,-1.00872 -5.65316,-9.85255 -6.98679,-10.93017 -0.34033,-0.275 -1.58688,-2.075 -2.77011,-4 -1.18323,-1.925 -3.18476,-4.625 -4.44785,-6 -1.26309,-1.375 -4.32124,-4.95081 -6.79589,-7.94624 -4.5266,-5.4792 -18.49188,-19.30317 -24.99936,-24.74639 -4.05619,-3.39282 -16.83587,-12.30737 -17.64354,-12.30737 -0.30125,0 -1.94242,-0.99312 -3.64706,-2.20693 -1.70463,-1.2138 -7.8491,-4.12825 -13.65437,-6.47655 l -10.55503,-4.26962 162,0.0399 c 153.19787,0.0378 166.53498,0.25099 155.64783,2.48832 -2.69025,0.55285 -21.79441,10.36429 -27.91633,14.33715 -13.12729,8.51906 -26.76141,21.55487 -41.92761,40.0877 -15.56252,19.01712 -35.53789,54.56615 -46.35761,82.5 -2.34336,6.05 -4.82296,12.35 -5.51021,14 -6.46553,15.52295 -22.27586,76.13094 -24.78191,95 -0.29219,2.2 -1.43864,9.4 -2.54768,16 -1.10904,6.6 -2.25195,14.41923 -2.5398,17.37607 -0.28784,2.95684 -0.73893,6.78184 -1.0024,8.5 -0.44668,2.91285 -0.84909,7.28061 -2.17516,23.60938 -0.28968,3.567 -0.65847,6.61724 -0.81954,6.7783 -0.16107,0.16107 -0.61395,-4.55738 -1.0064,-10.48545 l 0,0 z"
       id="path3097"
       inkscape:connector-curvature="0" />
  </g>
</svg>
